#!OML:ASF E:/inclinewalkrobotboard/Project1/Captureday1/Session1/subject1.ASF
:FULLY-SPECIFIED
:DEGREES
363
root 0 0 0 -2.385187690438489 -2.5063159062109346 -3.613137763886386
lowerback 10.480358714841184 0.8226917975351854 2.261773838332619
upperback 0.4528949330849046 1.4600875706694065 1.7647089032449577
thorax -5.291571517961488 0.6942555013274482 0.37206098961371553
lowerneck -17.310491007445183 -2.970382188438486 -1.674950381242291
upperneck 19.62365973580372 -3.7218452182051243 0.2846499845603674
head 9.0564227510357 -1.815217391636865 -0.11174427260584396
rclavicle -3.639270867572505E-16 -3.610924412473282E-16
rhumerus -30.44769030713745 -19.294265175439662 -78.32607709239448
rradius 25.426007457739836
rwrist 4.118545395775005
rhand -17.457610341796624 23.473016055798595
rfingers 7.125020000000038
rthumb 8.776822519674376 -6.363790738004006
lclavicle -6.370918281139039E-16 -2.0556299732997393E-16
lhumerus -30.511375841129006 -1.2827076184894715 82.30305739771066
lradius 31.87177069832977
lwrist 5.629022777431502
lhand -25.75112363666591 23.804320727445084
lfingers 7.124069338989861
lthumb 0.7754738128576779 53.47719531785555
rfemur -20.82189987080153 1.914773045870919 21.602286612926754
rtibia 57.350915663829646
rfoot 0.6320333707478056 -5.668249035761622
rtoes 7.470574756988678
lfemur 3.8034165993594637 -3.334487893214617 -26.310475637964473
ltibia 19.062983580126613
lfoot -15.908827999568226 0.4490979978626859
ltoes -3.945106580577745
364
root 0 0 0 -2.4468804335320558 -1.8555928467699871 -2.887184554861613
lowerback 10.475862983348163 0.48062898246226154 1.4600095731065106
upperback 0.44443049740340435 0.9157850290531684 1.7857467872358095
thorax -5.303588900506052 0.4449529104301382 0.9193189499830495
lowerneck -17.39120426573726 -2.8974314994277726 -1.7019363103199607
upperneck 19.72433360694605 -3.5986771254197425 0.2018775149636438
head 9.100725558306692 -1.7650425293502856 -0.12278006906638028
rclavicle -3.6303273397153936E-16 -3.631402616186404E-16
rhumerus -30.41431656008475 -19.259948944489054 -78.31858879847316
rradius 25.46136002685006
rwrist 4.1264815502504995
rhand -17.462769410507608 23.44636230018267
rfingers 7.125020000000037
rthumb 8.77154661273612 -6.390094928599471
lclavicle -6.434481988444885E-16 -2.0910684233633812E-16
lhumerus -30.42770886642578 -1.3729784515087928 82.2965743540175
lradius 32.04798244694459
lwrist 5.646251853061896
lhand -25.69789549007011 23.83552942422299
lfingers 7.124027381580239
lthumb 0.8271040840066295 53.49020894376973
rfemur -20.99507096575861 1.9995148382273902 21.477671815810663
rtibia 56.927032177440026
rfoot 0.4457347909240372 -5.797859091945525
rtoes 7.241946657471828
lfemur 3.875453567200301 -3.3154461503501658 -26.314437105253063
ltibia 19.20312249944237
lfoot -15.894017549469066 0.41060643535954267
ltoes -4.003072508121724
365
root 0 0 0 -2.527267191370277 -1.1847440915198568 -1.9381078427532277
lowerback 10.462246625406328 0.06308611014508925 0.4164502960093599
upperback 0.44994805291454565 0.2424489134606167 1.7890192700143053
thorax -5.295723538378612 0.13553759106458574 1.6009657084522253
lowerneck -17.407222333432152 -2.814677816088278 -1.7744123822803424
upperneck 19.78292985113306 -3.462831077064068 0.16646002721643338
head 9.119997367869003 -1.7109823855261677 -0.10703540427383995
rclavicle -3.6650827303031414E-16 -3.625998301151702E-16
rhumerus -30.30661692975282 -19.156065233035896 -78.29572205926395
rradius 25.565272620420057
rwrist 4.149470881098294
rhand -17.480173211823676 23.365678704857654
rfingers 7.1250200000000365
rthumb 8.754900412064647 -6.469305898084361
lclavicle -6.523199942069001E-16 -2.1127439694507794E-16
lhumerus -30.281647552600017 -1.5316773036526605 82.28579947001136
lradius 32.356606425612625
lwrist 5.676189206567341
lhand -25.60586445913014 23.890158535168737
lfingers 7.1239516729252275
lthumb 0.9153452051507944 53.514045725086945
rfemur -20.988703239712574 2.1878721870353584 21.433037935883426
rtibia 55.95763323592483
rfoot 0.004043784707679521 -5.971711534996455
rtoes 6.855538528408622
lfemur 3.9048900164742744 -3.3076921598039917 -26.299837543857706
ltibia 19.273618486100872
lfoot -15.92772286653394 0.4351613116603881
ltoes -4.047992683676186
366
root 0 0 0 -2.618320201138813 -0.6415045489608122 -0.8509277314162363
lowerback 10.438146972416156 -0.379759438968586 -0.7725648384129847
upperback 0.4782517903069241 -0.48325031957738096 1.7628522149255281
thorax -5.2566042632195025 -0.19921633556739632 2.340745410265512
lowerneck -17.308883783000287 -2.735625632422175 -1.9057862051757217
upperneck 19.758784081418575 -3.3389446729434464 0.21774000075460886
head 9.0925401977638 -1.6631314150867067 -0.05077572665560881
rclavicle -3.7433095806303324E-16 -3.585049332740519E-16
rhumerus -30.13301306091046 -18.991791341861386 -78.25874570850708
rradius 25.728102608263804
rwrist 4.1858145856911015
rhand -17.508682783748213 23.23754890574531
rfingers 7.125020000000035
rthumb 8.728124876375562 -6.594860559767628
lclavicle -6.624536880732148E-16 -2.099502511431449E-16
lhumerus -30.063576681677176 -1.7712867012936222 82.27084448067674
lradius 32.81938789233259
lwrist 5.720962641853097
lhand -25.468716099654543 23.972275522000785
lfingers 7.1238354530460315
lthumb 1.0454409272200742 53.55130999033772
rfemur -20.670755264866035 2.576254244021464 21.52722442551008
rtibia 53.913643657272324
rfoot -0.9262204468569095 -6.24018067909514
rtoes 6.142677340488864
lfemur 3.9948450831737663 -3.3072463906940204 -26.309174327528673
ltibia 19.282675385610315
lfoot -16.018411766819064 0.4867892851069433
ltoes -4.111419991583553
